<svg viewBox="0 0 76 75" fill="none" xmlns="http://www.w3.org/2000/svg">
<path d="M73.8 33.6877C75.7526 35.6403 75.7526 38.8062 73.8 40.7588L41.9802 72.5786C40.0276 74.5312 36.8617 74.5312 34.9091 72.5786C32.9565 70.626 32.9565 67.4602 34.9091 65.5075L63.1934 37.2233L34.9091 8.93899C32.9565 6.98637 32.9565 3.82054 34.9091 1.86792C36.8617 -0.0847018 40.0276 -0.0847018 41.9802 1.86792L73.8 33.6877ZM20.2645 32.2233L70.2645 32.2233V42.2233L20.2645 42.2233V32.2233Z" fill="white"/>
<line x1="5" y1="-5" x2="45" y2="-5" transform="matrix(-1 -8.74228e-08 -8.74228e-08 1 50.1938 42.2293)" stroke="white" stroke-width="10" stroke-linecap="round" stroke-linejoin="round"/>
</svg>
